Coordinates
version=1
nRows=16
nColumns=36
inDegrees=yes

Units are S.I. units (second, meters, Newtons, ...)
If the header above contains a line with 'inDegrees', this indicates whether rotational values are in degrees (yes) or radians (no).

endheader
time	pelvis_tilt	pelvis_list	pelvis_rotation	pelvis_tx	pelvis_ty	pelvis_tz	hip_flexion_r	hip_adduction_r	hip_rotation_r	knee_angle_r	knee_angle_r_beta	ankle_angle_r	subtalar_angle_r	mtp_angle_r	hip_flexion_l	hip_adduction_l	hip_rotation_l	knee_angle_l	knee_angle_l_beta	ankle_angle_l	subtalar_angle_l	mtp_angle_l	lumbar_extension	lumbar_bending	lumbar_rotation	arm_flex_r	arm_add_r	arm_rot_r	elbow_flex_r	pro_sup_r	arm_flex_l	arm_add_l	arm_rot_l	elbow_flex_l	pro_sup_l
      2.33333330	      9.46408342	     -0.45814543	      8.06429353	      1.69828072	      0.93169439	     -0.13059895	     -7.29213614	      3.17863112	      5.37319740	     10.78544564	      0.18824154	      9.85406557	     -6.53959214	     -7.49999987	    -16.31099819	     -0.91960117	      1.39857798	      5.88537732	      0.10271921	     12.78889651	     -2.44626598	     -7.49999987	    -13.26344078	      1.47173222	     -4.59671049	     45.56023111	      2.13689696	     62.77602633	    119.68833334	     84.03559126	     51.03602291	     -5.36193259	     62.17359509	    117.78648636	     93.93967469
      2.35000000	      9.34893365	     -0.50046972	      8.10490383	      1.70135243	      0.93211534	     -0.13349466	     -7.11246833	      3.16628681	      5.40195799	     10.68482362	      0.18648535	      9.39126937	     -6.74169270	     -7.49999987	    -16.06662104	     -0.88812956	      1.46907387	      5.93259303	      0.10354328	     12.76919958	     -2.45174504	     -7.49999987	    -13.17415067	      1.45832801	     -4.39412089	     45.79007565	      1.34219380	     62.18650134	    119.73047891	     84.68164834	     51.47484600	     -5.02849707	     62.10380967	    116.19108683	     95.08106123
      2.36666670	      9.29490457	     -0.51661672	      8.09210645	      1.69464902	      0.93310887	     -0.13320173	     -6.96645715	      3.14316944	      5.40893910	     10.61633851	      0.18529006	      9.37237427	     -6.72576335	     -7.49999987	    -15.91589378	     -0.83482239	      1.48905555	      5.88187456	      0.10265808	     12.78697074	     -2.44057641	     -7.49999987	    -13.35899864	      1.51919735	     -4.41706779	     45.84807055	      1.28938034	     62.15237229	    119.70419650	     84.68320283	     51.49700249	     -5.03669145	     62.08896151	    116.15641845	     95.08643695
      2.38333330	      9.24585363	     -0.51415224	      8.10054373	      1.69374441	      0.93511899	     -0.13787293	     -6.83936243	      3.07920097	      5.42232056	     10.55325933	      0.18418912	      9.27330565	     -6.67603232	     -7.49999987	    -15.76736713	     -0.74261039	      1.53195107	      5.83924670	      0.10191408	     12.79066864	     -2.40730989	     -7.49999987	    -13.47991789	      1.61639200	     -4.47292468	     45.96791625	      1.21437327	     62.13723580	    119.69339992	     84.68977456	     51.50190647	     -4.95553103	     62.10659466	    116.11891309	     95.09817858
      2.40000000	      9.04863831	     -0.57368668	      8.25342647	      1.69417494	      0.93247804	     -0.13780116	     -6.60383422	      3.08139245	      5.24759550	     10.34435141	      0.18054299	      8.90914929	     -6.61058505	     -7.49999987	    -15.38870757	     -0.72913584	      1.71926659	      5.92037260	      0.10332999	     12.93020721	     -2.19704535	     -7.49999987	    -13.21959570	      1.66071496	     -4.49693208	     46.20476650	      1.06083594	     62.44582811	    119.93029006	     84.76196793	     51.52823269	     -4.57134937	     62.29682705	    115.90101641	     94.93915483
      2.41666670	      8.91334904	     -0.59443385	      8.32852041	      1.69397253	      0.93011341	     -0.13888092	     -6.41866911	      3.03376969	      5.18226135	     10.19530913	      0.17794171	      8.81116404	     -6.46962532	     -7.49999987	    -15.14662786	     -0.65545955	      1.94664817	      5.90732894	      0.10310234	     12.91815895	     -2.27773117	     -7.49999987	    -13.05079776	      1.65078798	     -4.62502367	     46.23285653	      1.22626379	     62.50429074	    120.29993752	     86.81091612	     51.72407941	     -4.50302459	     62.40492054	    116.28603464	     97.13101417
      2.43333330	      8.90339586	     -0.61919805	      8.40316383	      1.69431585	      0.92800719	     -0.13865561	     -6.37039547	      2.99995259	      4.94358254	     10.07169414	      0.17578422	      8.88873044	     -5.94977037	     -7.49999987	    -14.98240888	     -0.61639299	      2.01627737	      6.01110717	      0.10491361	     13.04562054	     -2.18251331	     -7.49999987	    -12.99606945	      1.64566699	     -4.71195775	     46.25551082	      1.37480693	     62.70535619	    120.62843703	     84.01885872	     51.81962234	     -4.67400145	     62.48521461	    116.68017885	     93.30200541
      2.45000000	      8.88961522	     -0.63875923	      8.41122844	      1.69035658	      0.92981768	     -0.14122382	     -6.26200317	      2.96597287	      4.98458424	     10.02583793	      0.17498388	      8.83908983	     -5.93655287	     -7.49999987	    -14.87367280	     -0.55557287	      2.06754457	      5.99714754	      0.10466997	     13.05388405	     -2.16982864	     -7.49999987	    -13.11221727	      1.67204534	     -4.72085728	     46.24470151	      1.34453609	     62.71694498	    120.61007836	     84.02928379	     51.84285627	     -4.71022407	     62.47294299	    116.65724916	     93.31682385
      2.46666670	      8.70264973	     -0.69754485	      8.49444446	      1.69095435	      0.92982768	     -0.14128627	     -6.00011272	      2.97872161	      5.06931385	      9.94460542	      0.17356611	      8.40983189	     -6.26733040	     -7.49999987	    -14.43749809	     -0.52291846	      2.40912797	      6.25746335	      0.10921334	     13.10214299	     -2.43535074	     -7.49999987	    -12.97510869	      1.69110724	     -4.98709516	     46.14760688	      1.55590572	     62.66566865	    120.46539372	     86.53097322	     51.76119134	     -5.08380889	     61.95468457	    116.59741550	     97.41715440
      2.48333330	      8.73361665	     -0.75262259	      8.49252852	      1.69058342	      0.93438788	     -0.14139864	     -5.93738866	      2.99182738	      5.07638715	      9.94714169	      0.17361037	      8.25135399	     -6.20701535	     -7.49999987	    -14.31260766	     -0.51442773	      2.49956520	      6.37388413	      0.11124526	     13.06907160	     -2.39631188	     -7.49999987	    -13.19483456	      1.69031539	     -4.87444726	     45.83643873	      1.74893442	     62.80999388	    120.47400048	     86.53208525	     51.58115110	     -5.21586306	     62.07193284	    116.53447015	     97.42463088
      2.50000000	      8.58115771	     -0.84036761	      8.51464707	      1.69125096	      0.93215447	     -0.14183701	     -5.68729887	      3.02127283	      5.05295066	      9.92349802	      0.17319771	      8.06541080	     -6.21582980	     -7.49999987	    -13.98426881	     -0.51557862	      2.65537219	      6.54698342	      0.11426642	     13.10312707	     -2.53534802	     -7.49999987	    -13.05291009	      1.66555558	     -4.97239163	     45.38532524	      2.24296188	     62.58507698	    120.27505656	     86.16644529	     51.45310605	     -5.57608741	     62.50974658	    117.34224513	     96.67587723
      2.51666670	      8.59559682	     -0.92073007	      8.44310505	      1.68694832	      0.93422711	     -0.14392175	     -5.56886461	      3.04463067	      5.06974252	      9.91924176	      0.17312343	      7.97393187	     -6.17559170	     -7.49999987	    -13.89311185	     -0.51231221	      2.71452187	      6.57567738	      0.11476722	     13.09398001	     -2.50253002	     -7.49999987	    -13.20590111	      1.61405283	     -4.97314516	     45.28932624	      2.31420223	     62.61253874	    120.23387531	     86.16896243	     51.43560764	     -5.57344432	     62.53538747	    117.35621938	     96.68098740
      2.53333330	      8.38601011	     -0.98336316	      8.37006679	      1.68367661	      0.92478680	     -0.14706942	     -5.08191576	      3.01871625	      5.05889029	     10.06322526	      0.17563641	      7.60468793	     -6.26150592	     -7.49999987	    -13.34993831	     -0.43650352	      2.79399918	      7.04706274	      0.12299445	     13.54341696	     -2.43832632	     -7.49999987	    -12.96720519	      1.61382162	     -5.48521225	     45.57660963	      3.15289511	     62.24862133	    120.06429093	     86.33645596	     52.17219085	     -5.64950298	     62.24729794	    118.04808815	     96.94789357
      2.55000000	      8.28687301	     -1.14775286	      8.27660965	      1.67966223	      0.92280251	     -0.15001137	     -4.64954193	      3.07226217	      5.07186607	     10.30102444	      0.17978679	      7.22014915	     -6.14597467	     -7.49999987	    -13.11389670	     -0.48066318	      2.93954457	      7.09993865	      0.12391731	     13.57278813	     -2.37275894	     -7.49999987	    -12.98989542	      1.70695923	     -5.58201046	     46.10107924	      3.43471338	     61.95762661	    120.14851594	     86.31850840	     52.85491617	     -5.50662916	     61.90590634	    118.01935842	     96.93394917
      2.56666670	      8.22768141	     -1.24557955	      8.17729882	      1.67581673	      0.92463020	     -0.15720003	     -4.09733680	      3.01401929	      4.89117909	     10.76013410	      0.18779977	      6.81177166	     -6.18723979	     -7.49999987	    -12.83067123	     -0.42348350	      2.99749721	      7.31979193	      0.12775447	     13.84273278	     -2.41349486	     -7.49999987	    -13.22148565	      1.80981314	     -5.84333774	     46.57544976	      3.36882237	     61.84210762	    120.38167012	     86.30392340	     53.43372634	     -5.53897502	     61.61302517	    117.82471847	     96.91833129
      2.58333330	      7.94083790	     -1.34648160	      8.12971473	      1.67175533	      0.92197625	     -0.16026511	     -3.15792721	      2.93659684	      4.77403863	     11.43479010	      0.19957474	      6.58125411	     -6.50959913	     -7.49999987	    -12.08371064	     -0.31973535	      3.18064185	      7.92956909	      0.13839709	     14.33528155	     -2.47333156	     -7.49999987	    -13.26270007	      1.86592340	     -5.83808395	     47.26804976	      2.73779125	     61.96825919	    121.09782790	     84.93689683	     53.87563760	     -5.43851301	     61.65629995	    117.30503467	     95.57303450
